<svg width="41" height="41" viewBox="0 0 41 41" fill="none" xmlns="http://www.w3.org/2000/svg">
    <mask id="path-1-inside-1_690_2992" fill="white">
        <path d="M0.5 4.52771C0.5 2.31857 2.29086 0.52771 4.5 0.52771H40.5V40.5666H4.5C2.29086 40.5666 0.5 38.7758 0.5 36.5666V4.52771Z"/>
    </mask>
    <path d="M0.5 4.52771C0.5 2.31857 2.29086 0.52771 4.5 0.52771H40.5V40.5666H4.5C2.29086 40.5666 0.5 38.7758 0.5 36.5666V4.52771Z" fill="#16161C"/>
    <path d="M-0.5 4.52771C-0.5 1.76629 1.73858 -0.47229 4.5 -0.47229H40.5V1.52771H4.5C2.84315 1.52771 1.5 2.87086 1.5 4.52771H-0.5ZM40.5 41.5666H4.5C1.73858 41.5666 -0.5 39.328 -0.5 36.5666H1.5C1.5 38.2235 2.84315 39.5666 4.5 39.5666H40.5V41.5666ZM4.5 41.5666C1.73858 41.5666 -0.5 39.328 -0.5 36.5666V4.52771C-0.5 1.76629 1.73858 -0.47229 4.5 -0.47229V1.52771C2.84315 1.52771 1.5 2.87086 1.5 4.52771V36.5666C1.5 38.2235 2.84315 39.5666 4.5 39.5666V41.5666ZM40.5 0.52771V40.5666V0.52771Z" fill="#37373B" mask="url(#path-1-inside-1_690_2992)"/>
    <path d="M23.5 10.5471H17.5C12.5 10.5471 10.5 12.5471 10.5 17.5471V23.5471C10.5 28.5471 12.5 30.5471 17.5 30.5471H23.5C28.5 30.5471 30.5 28.5471 30.5 23.5471V17.5471C30.5 12.5471 28.5 10.5471 23.5 10.5471Z" stroke="white" stroke-width="1.5" stroke-linecap="round" stroke-linejoin="round"/>
    <path d="M21.7598 17.0171L18.2398 20.5471L21.7598 24.0771" stroke="white" stroke-width="1.5" stroke-linecap="round" stroke-linejoin="round"/>
</svg>
