<svg width="41" height="41" viewBox="0 0 41 41" fill="none" xmlns="http://www.w3.org/2000/svg">
    <mask id="path-1-inside-1_314_1461" fill="white">
        <path d="M0.5 4.5C0.5 2.29086 2.29086 0.5 4.5 0.5H40.5V40.5H4.5C2.29086 40.5 0.5 38.7091 0.5 36.5V4.5Z"/>
    </mask>
    <path d="M0.5 4.5C0.5 2.29086 2.29086 0.5 4.5 0.5H40.5V40.5H4.5C2.29086 40.5 0.5 38.7091 0.5 36.5V4.5Z" fill="#16161C"/>
    <path d="M-0.5 4.5C-0.5 1.73858 1.73858 -0.5 4.5 -0.5H40.5V1.5H4.5C2.84315 1.5 1.5 2.84315 1.5 4.5H-0.5ZM40.5 41.5H4.5C1.73858 41.5 -0.5 39.2614 -0.5 36.5H1.5C1.5 38.1569 2.84315 39.5 4.5 39.5H40.5V41.5ZM4.5 41.5C1.73858 41.5 -0.5 39.2614 -0.5 36.5V4.5C-0.5 1.73858 1.73858 -0.5 4.5 -0.5V1.5C2.84315 1.5 1.5 2.84315 1.5 4.5V36.5C1.5 38.1569 2.84315 39.5 4.5 39.5V41.5ZM40.5 0.5V40.5V0.5Z" fill="#37373B" mask="url(#path-1-inside-1_314_1461)"/>
    <path d="M17.5 30.5H23.5C28.5 30.5 30.5 28.5 30.5 23.5V17.5C30.5 12.5 28.5 10.5 23.5 10.5H17.5C12.5 10.5 10.5 12.5 10.5 17.5V23.5C10.5 28.5 12.5 30.5 17.5 30.5Z" stroke="white" stroke-width="1.5" stroke-linecap="round" stroke-linejoin="round"/>
    <path d="M19.2402 24.03L22.7602 20.5L19.2402 16.97" stroke="white" stroke-width="1.5" stroke-linecap="round" stroke-linejoin="round"/>
</svg>

