<svg width="12" height="12" viewBox="0 0 12 12" fill="none" xmlns="http://www.w3.org/2000/svg">
    <path fill-rule="evenodd" clip-rule="evenodd" d="M1.09975 0.900111C0.893834 0.694198 0.893834 0.360347 1.09975 0.154435C1.30566 -0.0514782 1.63951 -0.0514782 1.84542 0.154435L6.47259 4.7816L11.0997 0.154435C11.3057 -0.0514782 11.6395 -0.0514782 11.8454 0.154435C12.0513 0.360347 12.0513 0.694198 11.8454 0.900111L7.21826 5.52727L11.8454 10.1544C12.0513 10.3603 12.0513 10.6942 11.8454 10.9001C11.6395 11.106 11.3057 11.106 11.0997 10.9001L6.47259 6.27295L1.84542 10.9001C1.63951 11.106 1.30566 11.106 1.09975 10.9001C0.893835 10.6942 0.893835 10.3603 1.09975 10.1544L5.72691 5.52727L1.09975 0.900111Z" fill="white"/>
    <path fill-rule="evenodd" clip-rule="evenodd" d="M1.09975 0.900111C0.893834 0.694198 0.893834 0.360347 1.09975 0.154435C1.30566 -0.0514782 1.63951 -0.0514782 1.84542 0.154435L6.47259 4.7816L11.0997 0.154435C11.3057 -0.0514782 11.6395 -0.0514782 11.8454 0.154435C12.0513 0.360347 12.0513 0.694198 11.8454 0.900111L7.21826 5.52727L11.8454 10.1544C12.0513 10.3603 12.0513 10.6942 11.8454 10.9001C11.6395 11.106 11.3057 11.106 11.0997 10.9001L6.47259 6.27295L1.84542 10.9001C1.63951 11.106 1.30566 11.106 1.09975 10.9001C0.893835 10.6942 0.893835 10.3603 1.09975 10.1544L5.72691 5.52727L1.09975 0.900111Z" fill="#A2A2A2"/>
</svg>
