<svg width="20" height="20" viewBox="0 0 20 20" fill="none" xmlns="http://www.w3.org/2000/svg">
    <path d="M10 0.75H5.25C2.76472 0.75 0.75 2.76472 0.75 5.25V14.75C0.75 17.2353 2.76472 19.25 5.25 19.25H14.75C17.2353 19.25 19.25 17.2353 19.25 14.75V10" stroke="white" stroke-width="1.5" stroke-linecap="round"/>
    <path d="M13.3787 2.12132C14.5503 0.949747 16.4497 0.949748 17.6213 2.12132L17.7981 2.2981C18.9697 3.46967 18.9697 5.36917 17.7981 6.54074L10.5807 13.7581C10.3326 14.0063 10.0053 14.1595 9.65585 14.1913L7.12795 14.4211C6.19504 14.5059 5.4135 13.7244 5.4983 12.7915L5.72811 10.2636C5.75988 9.9141 5.91317 9.58683 6.16129 9.33871L13.3787 2.12132Z" stroke="white" stroke-width="1.5"/>
    <path d="M12.5 3.12497V3.12497C13.2982 5.12053 14.8794 6.70175 16.875 7.49997V7.49997" stroke="white" stroke-width="1.5" stroke-linecap="square"/>
</svg>
