<svg width="16" height="15" viewBox="0 0 16 15" fill="none" xmlns="http://www.w3.org/2000/svg">
    <g clip-path="url(#clip0_376_2837)">
        <path fill-rule="evenodd" clip-rule="evenodd" d="M0.5 7.5C0.5 5.51088 1.28235 3.60322 2.67495 2.1967C4.06755 0.790176 5.95631 0 7.92574 0C9.89517 0 11.7839 0.790176 13.1765 2.1967C14.5691 3.60322 15.3515 5.51088 15.3515 7.5C15.3515 9.48912 14.5691 11.3968 13.1765 12.8033C11.7839 14.2098 9.89517 15 7.92574 15C5.95631 15 4.06755 14.2098 2.67495 12.8033C1.28235 11.3968 0.5 9.48912 0.5 7.5ZM7.50198 10.71L11.7772 5.312L11.005 4.688L7.35941 9.289L4.77723 7.116L4.14356 7.884L7.50198 10.711V10.71Z" fill="#91A9FF"/>
    </g>
    <defs>
        <clipPath id="clip0_376_2837">
            <rect width="14.8515" height="15" fill="white" transform="translate(0.5)"/>
        </clipPath>
    </defs>
</svg>
